<?xml version="1.0" encoding="iso-8859-1"?>
<!-- Uploaded to: SVG Repo, www.svgrepo.com, Generator: SVG Repo Mixer Tools -->
<svg height="800px" width="800px" version="1.1" id="Layer_1" xmlns="http://www.w3.org/2000/svg" xmlns:xlink="http://www.w3.org/1999/xlink" 
	 viewBox="0 0 512.001 512.001" xml:space="preserve">
<polygon style="fill:#FF738E;" points="445.501,11.694 372.316,112.153 375.776,148.689 412.314,152.151 487.767,97.181 "/>
<path style="fill:#0E4675;" d="M31.144,461.467c-8.989,9.202-9.239,23.833-0.573,32.501c8.666,8.666,23.299,8.416,32.501-0.573
	l267.074-260.903l-38.099-38.099L31.144,461.467z"/>
<polygon style="fill:#3D7A94;" points="372.351,112.189 292.048,194.393 330.145,232.491 412.35,152.187 "/>
<path style="fill:#000030;" d="M498.25,91.999L455.983,6.511c-1.813-3.668-5.411-6.121-9.486-6.469
	c-4.076-0.347-8.038,1.458-10.449,4.765l-72.901,100.068l-71.2,72.882c-4.572-4.469-11.904-4.438-16.44,0.096
	c-4.566,4.566-4.566,11.971,0,16.539l0.097,0.096L22.779,453.296c-13.464,13.784-13.678,35.739-0.476,48.941
	c6.516,6.516,15.162,9.764,23.908,9.764c8.973,0,18.052-3.422,25.032-10.24L330.05,248.934l0.095,0.096
	c4.568,4.565,11.97,4.565,16.539,0c4.534-4.535,4.566-11.865,0.097-16.44l73.392-71.695l74.48-54.261
	C499.254,103.28,500.773,97.101,498.25,91.999z M54.9,485.031c-4.586,4.479-11.941,4.786-16.059,0.668
	c-4.117-4.119-3.811-11.473,0.669-16.059L292.145,211.03l21.366,21.366L54.9,485.031z M330.242,216.05l-21.753-21.752l63.96-65.472
	l23.266,23.266L330.242,216.05z M413.51,136.811l-4.635-4.637l35.157-35.121c4.569-4.564,4.572-11.968,0.008-16.538
	c-4.564-4.569-11.968-4.572-16.538-0.008l-35.165,35.13l-4.681-4.681l55.924-76.765l29.339,59.338L413.51,136.811z"/>
</svg>